<svg xmlns="http://www.w3.org/2000/svg" width="650" height="330" fill="none" style="">
    
    <rect id="backgroundrect" width="100%" height="100%" x="0" y="0" fill="none" stroke="none" />
    
    <mask id="mask0" mask-type="alpha" maskUnits="userSpaceOnUse" x="0" y="0" width="650" height="330">
        <path fill-rule="evenodd" clip-rule="evenodd" d="M20 0C8.95431 0 0 8.95431 0 20V138C14.9117 138 27 150.088 27 165C27 179.912 14.9117 192 0 192V310C0 321.046 8.9543 330 20 330H630C641.046 330 650 321.046 650 310V192C635.088 192 623 179.912 623 165C623 150.088 635.088 138 650 138V20C650 8.95431 641.046 0 630 0H20Z" fill="#252729" id="svg_1" />
    </mask>
   
    <defs>
        <filter id="filter0_f" x="171.75799560546875" y="-155.24200439453125" width="633.4849853515625" height="640.4849853515625" filterUnits="userSpaceOnUse" color-interpolation-filters="sRGB">
            <feFlood flood-opacity="0" result="BackgroundImageFix" />
            <feBlend mode="normal" in="SourceGraphic" in2="BackgroundImageFix" result="shape" />
            <feGaussianBlur stdDeviation="27.1212" result="effect1_foregroundBlur" />
        </filter>
        <filter id="filter1_f" x="90.29759979248047" y="-109.24199676513672" width="543.1519775390625" height="548.4849853515625" filterUnits="userSpaceOnUse" color-interpolation-filters="sRGB">
            <feFlood flood-opacity="0" result="BackgroundImageFix" />
            <feBlend mode="normal" in="SourceGraphic" in2="BackgroundImageFix" result="shape" />
            <feGaussianBlur stdDeviation="27.1212" result="effect1_foregroundBlur" />
        </filter>
        <filter id="filter2_f" x="-140.24200439453125" y="-139.24200439453125" width="603.4849853515625" height="608.4849853515625" filterUnits="userSpaceOnUse" color-interpolation-filters="sRGB">
            <feFlood flood-opacity="0" result="BackgroundImageFix" />
            <feBlend mode="normal" in="SourceGraphic" in2="BackgroundImageFix" result="shape" />
            <feGaussianBlur stdDeviation="27.1212" result="effect1_foregroundBlur" />
        </filter>
        <linearGradient id="paint0_linear" x1="1" y1="0.5" x2="0" y2="0.5">
            <stop stop-color="#53A0EC" />
            <stop offset="1" stop-color="#57C84F" />
        </linearGradient>
        <linearGradient id="paint1_linear" x1="0" y1="0.5" x2="1.0000022649765015" y2="0.5">
            <stop stop-color="#FFBC29" />
            <stop offset="1" stop-color="#EADF58" />
        </linearGradient>
        <linearGradient id="paint2_linear" x1="0" y1="0.5" x2="1" y2="0.5">
            <stop stop-color="#EC6193" />
            <stop offset="1" stop-color="#EC4B31" />
        </linearGradient>
        <linearGradient id="paint3_linear" x1="1.0000396966934204" y1="0.5000001192092896" x2="0.000018049986465484835" y2="0.5000001192092896">
            <stop stop-color="#53A0EC" />
            <stop offset="1" stop-color="#57C84F" />
        </linearGradient>
        <linearGradient id="paint4_linear" x1="0.000018049986465484835" y1="0.5000001192092896" x2="0.999983012676239" y2="0.5000001192092896">
            <stop stop-color="#FFBC29" />
            <stop offset="1" stop-color="#EADF58" />
        </linearGradient>
        <linearGradient id="paint5_linear" x1="-0.00003867854320560582" y1="0.5000001192092896" x2="0.999983012676239" y2="0.5000001192092896">
            <stop stop-color="#EC6193" />
            <stop offset="1" stop-color="#EC4B31" />
        </linearGradient>
        <clipPath id="clip0">
            <rect width="11.835100173950195" height="11.835100173950195" fill="white" y="213.55299377441406" x="222.03399658203125" id="svg_2" />
        </clipPath>
      
    </defs>
    <g class="currentLayer" >
        <title>Layer 1</title>
        
        <g mask="url(#mask0)" id="svg_3">
            <g filter="url(#filter0_f)" id="svg_4">
                <ellipse cx="488.5" cy="165" rx="262.5" ry="266" fill="url(#paint0_linear)" id="svg_5" />
            </g>
            <g filter="url(#filter1_f)" id="svg_6">
                <ellipse cx="361.87298583984375" cy="165" rx="217.33299255371094" ry="220" fill="url(#paint1_linear)" id="svg_7" />
            </g>
            <g filter="url(#filter2_f)" id="svg_8">
                <ellipse cx="161.5" cy="165" rx="247.5" ry="250" fill="url(#paint2_linear)" id="svg_9" />
            </g>
        </g>
        
        <path fill-rule="evenodd" clip-rule="evenodd" d="M21 5C12.1634 5 5 12.1634 5 21V133.388C20.2981 135.789 32 149.028 32 165C32 180.972 20.2981 194.211 5 196.612V309C5 317.837 12.1634 325 21 325H629C637.837 325 645 317.837 645 309V196.612C629.702 194.211 618 180.972 618 165C618 149.028 629.702 135.789 645 133.388V21C645 12.1634 637.837 5 629 5H21Z" fill="black" id="svg_10" class="" />
        <path d="M512 5V326" stroke="#444444" stroke-dasharray="6 6" id="svg_11" />
    </g>
    

   
</svg>